<?xml version="1.0" encoding="UTF-8"?><svg xmlns="http://www.w3.org/2000/svg" xmlns:xlink="http://www.w3.org/1999/xlink" height="152.2" preserveAspectRatio="xMidYMid meet" version="1.0" viewBox="-5.7 -1.5 498.4 152.2" width="498.4" zoomAndPan="magnify"><defs><clipPath id="a"><path d="M 118 107 L 128 107 L 128 150.660156 L 118 150.660156 Z M 118 107"/></clipPath><clipPath id="b"><path d="M 281 107 L 291 107 L 291 150.660156 L 281 150.660156 Z M 281 107"/></clipPath></defs><g><g id="change1_3"><path d="M 55.367188 92.878906 C 57.179688 95.136719 58.074219 98.546875 58.316406 101.511719 C 58.882812 108.519531 53.65625 113.707031 52.292969 120.246094 C 51.300781 125.03125 53.148438 130.800781 57.035156 133.878906 C 58.28125 134.871094 60.066406 133.113281 58.800781 132.113281 C 57.074219 130.742188 55.910156 128.78125 55.160156 126.742188 C 52.773438 120.261719 57.585938 114.65625 59.746094 108.925781 C 61.886719 103.25 60.96875 95.886719 57.136719 91.113281 C 56.125 89.855469 54.367188 91.636719 55.367188 92.878906" fill="#abaaa9"/></g><g id="change2_1"><path d="M 78.636719 34.3125 C 70.144531 11.289062 47.53125 2.242188 26.601562 9.960938 C 5.671875 17.679688 -5.652344 39.242188 2.839844 62.265625 C 10.726562 83.660156 32.953125 98.785156 52.851562 94.625 C 52.878906 94.785156 52.917969 94.945312 52.976562 95.105469 C 53.300781 95.972656 54.023438 96.578125 54.859375 96.785156 C 54.257812 98.027344 53.65625 99.269531 53.050781 100.515625 C 52.371094 101.914062 54.050781 103.078125 55.25 102.328125 C 54.9375 102.527344 55.179688 102.367188 55.378906 102.285156 C 55.71875 102.140625 56.066406 102.074219 56.429688 102.019531 C 57.8125 101.808594 59.160156 102.25 60.542969 101.945312 C 62.257812 101.5625 63.859375 100.46875 64.96875 99.113281 C 65.621094 98.320312 65.257812 97.3125 64.449219 96.832031 C 63.277344 96.140625 62.105469 95.445312 60.933594 94.753906 C 61.636719 94.035156 61.90625 92.953125 61.535156 91.949219 C 61.480469 91.804688 61.414062 91.667969 61.34375 91.539062 C 79.371094 81.898438 86.566406 55.8125 78.636719 34.3125" fill="#8d95cb"/></g><g id="change3_3"><path d="M 47.660156 19.304688 C 52.5 19.410156 57.050781 22.71875 60.179688 26.097656 C 61.277344 27.285156 63.039062 25.511719 61.945312 24.332031 C 58.351562 20.449219 53.164062 16.925781 47.660156 16.804688 C 46.046875 16.765625 46.050781 19.265625 47.660156 19.304688" fill="#fff"/></g><g id="change1_1"><path d="M 460.449219 92.878906 C 462.261719 95.136719 463.15625 98.546875 463.398438 101.511719 C 463.964844 108.519531 458.738281 113.707031 457.378906 120.246094 C 456.382812 125.03125 458.230469 130.800781 462.117188 133.878906 C 463.367188 134.871094 465.148438 133.113281 463.886719 132.113281 C 462.15625 130.742188 460.996094 128.78125 460.242188 126.742188 C 457.855469 120.261719 462.667969 114.65625 464.828125 108.925781 C 466.96875 103.25 466.054688 95.886719 462.21875 91.113281 C 461.207031 89.855469 459.449219 91.636719 460.449219 92.878906" fill="#abaaa9"/></g><g id="change1_4"><path d="M 204.152344 82.878906 C 205.964844 85.136719 206.859375 88.546875 207.101562 91.511719 C 207.671875 98.519531 202.441406 103.707031 201.082031 110.246094 C 200.085938 115.03125 201.933594 120.800781 205.820312 123.878906 C 207.070312 124.871094 208.851562 123.113281 207.589844 122.113281 C 205.859375 120.742188 204.699219 118.78125 203.945312 116.742188 C 201.558594 110.261719 206.371094 104.65625 208.53125 98.921875 C 210.671875 93.25 209.757812 85.886719 205.921875 81.113281 C 204.910156 79.855469 203.15625 81.636719 204.152344 82.878906" fill="#abaaa9"/></g><g clip-path="url(#a)" id="change1_5"><path d="M 122.351562 107.601562 C 118.324219 112.617188 117.996094 119.464844 119.742188 125.410156 C 121.484375 131.351562 125.976562 135.652344 124.59375 142.304688 C 124.101562 144.667969 122.585938 147.09375 120.6875 148.601562 C 119.421875 149.601562 121.203125 151.355469 122.453125 150.367188 C 126.339844 147.285156 128.1875 141.519531 127.191406 136.734375 C 125.902344 130.542969 121.550781 125.777344 121.15625 119.292969 C 120.957031 116.007812 122.121094 111.855469 124.121094 109.367188 C 125.117188 108.121094 123.359375 106.34375 122.351562 107.601562" fill="#abaaa9"/></g><g clip-path="url(#b)" id="change1_6"><path d="M 285.53125 107.601562 C 281.503906 112.617188 281.175781 119.464844 282.921875 125.410156 C 284.664062 131.351562 289.152344 135.652344 287.773438 142.304688 C 287.28125 144.667969 285.765625 147.09375 283.863281 148.601562 C 282.601562 149.601562 284.382812 151.355469 285.632812 150.367188 C 289.519531 147.285156 291.367188 141.519531 290.371094 136.734375 C 289.082031 130.542969 284.730469 125.777344 284.335938 119.292969 C 284.136719 116.007812 285.300781 111.855469 287.296875 109.367188 C 288.296875 108.121094 286.539062 106.34375 285.53125 107.601562" fill="#abaaa9"/></g><g id="change1_2"><path d="M 372.203125 89.367188 C 374.015625 91.625 374.910156 95.035156 375.152344 98 C 375.722656 105.007812 370.492188 110.195312 369.132812 116.734375 C 368.136719 121.519531 369.984375 127.285156 373.871094 130.367188 C 375.121094 131.355469 376.902344 129.601562 375.640625 128.601562 C 373.910156 127.230469 372.75 125.269531 371.996094 123.226562 C 369.609375 116.746094 374.421875 111.144531 376.582031 105.410156 C 378.722656 99.738281 377.808594 92.375 373.972656 87.601562 C 372.964844 86.34375 371.207031 88.125 372.203125 89.367188" fill="#abaaa9"/></g><g id="change2_2"><path d="M 484.800781 34.3125 C 476.308594 11.289062 453.695312 2.242188 432.765625 9.960938 C 411.835938 17.679688 400.511719 39.242188 409.003906 62.265625 C 416.894531 83.660156 439.117188 98.785156 459.019531 94.625 C 459.042969 94.785156 459.085938 94.945312 459.144531 95.105469 C 459.464844 95.972656 460.1875 96.578125 461.027344 96.785156 C 460.421875 98.027344 459.820312 99.269531 459.214844 100.515625 C 458.535156 101.914062 460.21875 103.078125 461.414062 102.328125 C 461.101562 102.527344 461.34375 102.367188 461.542969 102.285156 C 461.882812 102.140625 462.230469 102.074219 462.59375 102.019531 C 463.976562 101.808594 465.324219 102.25 466.707031 101.945312 C 468.425781 101.5625 470.023438 100.46875 471.136719 99.113281 C 471.785156 98.320312 471.421875 97.3125 470.613281 96.832031 C 469.441406 96.140625 468.269531 95.445312 467.097656 94.753906 C 467.800781 94.035156 468.070312 92.953125 467.699219 91.949219 C 467.648438 91.804688 467.582031 91.667969 467.507812 91.539062 C 485.535156 81.898438 492.730469 55.8125 484.800781 34.3125" fill="#8d95cb"/></g><g id="change4_1"><path d="M 170.839844 73.429688 C 175.769531 49.390625 161.332031 29.773438 139.480469 25.292969 C 117.625 20.808594 96.632812 33.15625 91.703125 57.195312 C 87.117188 79.535156 98.023438 104.105469 117.121094 111.066406 C 117.0625 111.21875 117.011719 111.375 116.976562 111.539062 C 116.789062 112.449219 117.085938 113.34375 117.691406 113.960938 C 116.523438 114.699219 115.355469 115.4375 114.1875 116.175781 C 112.871094 117.007812 113.683594 118.882812 115.097656 118.878906 C 114.726562 118.882812 115.015625 118.875 115.230469 118.90625 C 115.59375 118.96875 115.921875 119.09375 116.261719 119.234375 C 117.546875 119.789062 118.457031 120.875 119.792969 121.34375 C 121.453125 121.925781 123.390625 121.839844 125.050781 121.269531 C 126.019531 120.941406 126.242188 119.894531 125.808594 119.0625 C 125.179688 117.851562 124.550781 116.644531 123.921875 115.4375 C 124.894531 115.199219 125.695312 114.421875 125.910156 113.375 C 125.941406 113.222656 125.957031 113.074219 125.964844 112.925781 C 146.367188 114.242188 166.234375 95.878906 170.839844 73.429688" fill="#b9e2d0"/></g><g id="change5_2"><path d="M 388.464844 28.597656 C 377.925781 6.433594 354.589844 -0.535156 334.441406 9.046875 C 314.292969 18.625 304.96875 41.121094 315.503906 63.285156 C 325.296875 83.878906 348.796875 96.933594 368.238281 90.988281 C 368.277344 91.148438 368.335938 91.304688 368.40625 91.457031 C 368.804688 92.292969 369.578125 92.832031 370.433594 92.957031 C 369.945312 94.25 369.457031 95.542969 368.96875 96.835938 C 368.417969 98.292969 370.195312 99.300781 371.324219 98.445312 C 371.027344 98.671875 371.257812 98.492188 371.445312 98.390625 C 371.769531 98.21875 372.113281 98.121094 372.46875 98.03125 C 373.828125 97.699219 375.210938 98.015625 376.558594 97.585938 C 378.230469 97.050781 379.726562 95.816406 380.710938 94.363281 C 381.285156 93.515625 380.835938 92.546875 379.984375 92.144531 C 378.757812 91.558594 377.527344 90.972656 376.296875 90.386719 C 376.929688 89.609375 377.101562 88.507812 376.644531 87.539062 C 376.578125 87.402344 376.5 87.273438 376.414062 87.152344 C 393.5 75.917969 398.304688 49.292969 388.464844 28.597656" fill="#de97a0"/></g><g id="change5_1"><path d="M 242.367188 37.863281 C 240.546875 13.394531 221.304688 -1.535156 199.054688 0.121094 C 176.808594 1.773438 159.984375 19.386719 161.804688 43.855469 C 163.496094 66.597656 180.691406 87.257812 200.96875 88.742188 C 200.949219 88.902344 200.945312 89.066406 200.957031 89.238281 C 201.027344 90.160156 201.558594 90.941406 202.304688 91.371094 C 201.382812 92.398438 200.460938 93.425781 199.539062 94.457031 C 198.5 95.613281 199.792969 97.199219 201.152344 96.808594 C 200.796875 96.910156 201.074219 96.824219 201.289062 96.800781 C 201.652344 96.757812 202.007812 96.789062 202.371094 96.835938 C 203.757812 97.015625 204.933594 97.8125 206.34375 97.894531 C 208.101562 98.003906 209.941406 97.390625 211.382812 96.390625 C 212.226562 95.808594 212.152344 94.742188 211.507812 94.058594 C 210.574219 93.070312 209.636719 92.078125 208.703125 91.089844 C 209.574219 90.59375 210.132812 89.628906 210.054688 88.558594 C 210.042969 88.40625 210.015625 88.257812 209.980469 88.113281 C 229.96875 83.8125 244.066406 60.71875 242.367188 37.863281" fill="#de97a0"/></g><g id="change4_2"><path d="M 334.800781 72.210938 C 339.511719 48.128906 324.890625 28.648438 302.996094 24.367188 C 281.105469 20.089844 260.226562 32.628906 255.515625 56.714844 C 251.140625 79.09375 262.273438 103.5625 281.4375 110.347656 C 281.378906 110.5 281.328125 110.65625 281.296875 110.824219 C 281.117188 111.734375 281.421875 112.625 282.03125 113.234375 C 280.871094 113.984375 279.707031 114.734375 278.546875 115.484375 C 277.238281 116.324219 278.070312 118.195312 279.480469 118.179688 C 279.113281 118.183594 279.402344 118.175781 279.617188 118.207031 C 279.980469 118.261719 280.3125 118.386719 280.648438 118.523438 C 281.941406 119.0625 282.863281 120.140625 284.203125 120.597656 C 285.867188 121.164062 287.804688 121.058594 289.460938 120.476562 C 290.425781 120.140625 290.640625 119.089844 290.195312 118.261719 C 289.558594 117.058594 288.914062 115.855469 288.273438 114.65625 C 289.246094 114.40625 290.039062 113.625 290.246094 112.574219 C 290.277344 112.421875 290.289062 112.273438 290.292969 112.125 C 310.710938 113.25 330.40625 94.703125 334.800781 72.210938" fill="#b9e2d0"/></g><g id="change3_5"><path d="M 453.824219 19.304688 C 458.664062 19.410156 463.214844 22.71875 466.34375 26.097656 C 467.441406 27.285156 469.203125 25.511719 468.109375 24.332031 C 464.519531 20.449219 459.332031 16.925781 453.824219 16.804688 C 452.214844 16.765625 452.21875 19.265625 453.824219 19.304688" fill="#fff"/></g><g id="change3_6"><path d="M 152.472656 44.355469 C 156.527344 46.992188 158.640625 52.246094 159.503906 56.761719 C 159.808594 58.34375 162.214844 57.671875 161.914062 56.097656 C 160.921875 50.90625 158.339844 45.191406 153.730469 42.195312 C 152.375 41.3125 151.125 43.480469 152.472656 44.355469" fill="#fff"/></g><g id="change3_2"><path d="M 356.144531 16.449219 C 360.992188 16.125 365.800781 18.902344 369.257812 22.007812 C 370.453125 23.082031 372.226562 21.320312 371.023438 20.238281 C 367.097656 16.714844 361.644531 13.582031 356.144531 13.949219 C 354.546875 14.058594 354.535156 16.558594 356.144531 16.449219" fill="#fff"/></g><g id="change3_4"><path d="M 216.738281 14.90625 C 221.351562 16.328125 224.851562 20.800781 226.902344 24.910156 C 227.621094 26.351562 229.777344 25.085938 229.058594 23.648438 C 226.707031 18.9375 222.640625 14.109375 217.402344 12.496094 C 215.855469 12.019531 215.203125 14.433594 216.738281 14.90625" fill="#fff"/></g><g id="change3_1"><path d="M 316.152344 43.304688 C 320.234375 45.90625 322.402344 51.132812 323.308594 55.640625 C 323.628906 57.222656 326.035156 56.550781 325.71875 54.976562 C 324.679688 49.796875 322.050781 44.097656 317.414062 41.148438 C 316.050781 40.277344 314.800781 42.441406 316.152344 43.304688" fill="#fff"/></g></g></svg>